<!-- Generated by IcoMoon.io -->
<svg aria-hidden="true" style="position: absolute; width: 0; height: 0; overflow: hidden;" version="1.1" xmlns="http://www.w3.org/2000/svg" viewBox="0 0 2352 1024">
<defs>
<symbol id="menu" viewBox="0 0 32 32">
<path d="M5.333 8h21.333v2.667h-21.333v-2.667zM5.333 14.667h21.333v2.667h-21.333v-2.667zM5.333 21.333h21.333v2.667h-21.333v-2.667z"></path>
</symbol>
<symbol id="icon-x" viewBox="0 0 32 32">
<path d="M21.589 8.459l-5.657 5.656-5.656-5.656-1.885 1.885 5.656 5.656-5.656 5.656 1.885 1.885 5.656-5.656 5.657 5.656 1.885-1.885-5.656-5.656 5.656-5.656-1.885-1.885z"></path>
</symbol>
<symbol id="icon-logo-w" viewBox="0 0 74 32">
<path d="M8.763 8.485c4.266-0.398 8.046 2.74 8.44 7.007s-2.748 8.043-7.015 8.433c-4.261 0.389-8.031-2.748-8.424-7.008s2.74-8.034 7-8.431zM10.31 23.104c3.809-0.457 6.525-3.917 6.065-7.725s-3.921-6.522-7.729-6.060c-3.805 0.462-6.516 3.919-6.056 7.724s3.915 6.518 7.72 6.062z"></path>
<path d="M12.517 12.169l0.892-0.006c0.017 2.576 0.019 5.151 0.004 7.727l-0.923 0.012-0.001-4.839-0.004-1.325c-0.515 0.978-1.101 1.919-1.658 2.873-0.353 0.605-0.681 1.299-1.119 1.843-0.104 0.038-0.217 0.041-0.326 0.016-0.036-0.008-0.11-0.036-0.137-0.058-0.236-0.188-2.454-4.085-2.808-4.675 0.091 0.701 0.034 1.465 0.033 2.172l-0.003 3.974-0.944 0.003c0.029-2.571-0.017-5.145 0.008-7.717l1.027 0.005c0.457 0.817 0.947 1.617 1.421 2.424 0.504 0.858 0.994 1.726 1.529 2.565 0.544-0.994 1.153-1.957 1.738-2.928 0.414-0.688 0.806-1.412 1.27-2.066z"></path>
<path d="M59.764 14.005c0.182-0.012 0.369-0.017 0.551-0.014 0.68 0.012 1.375 0.376 1.841 0.858 0.581 0.601 0.85 1.439 0.831 2.266-0.020 0.841-0.335 1.641-0.954 2.218-0.549 0.511-1.252 0.785-2.004 0.757-0.861-0.032-1.432-0.395-2.010-1.012-0.022 0.353-0.016 0.71-0.019 1.063 0.004 0.702 0.003 1.405-0.003 2.107-0.328 0.032-0.658 0.029-0.985-0.009 0.054-1.087 0.006-2.201 0.007-3.292 0-1.622 0.026-3.248-0.011-4.87l0.974-0.004c-0.019 0.362-0.015 0.727-0.020 1.090 0.528-0.659 0.968-0.976 1.801-1.16zM60.186 19.219c0.606-0.114 1.075-0.361 1.43-0.883 0.348-0.52 0.473-1.159 0.346-1.771-0.109-0.546-0.432-1.062-0.908-1.361-0.374-0.235-0.779-0.3-1.212-0.287-0.6 0.114-1.087 0.327-1.447 0.851-0.339 0.493-0.485 1.195-0.371 1.781 0.109 0.563 0.442 1.057 0.925 1.367 0.384 0.242 0.79 0.311 1.236 0.303z"></path>
<path d="M41.584 11.561c0.159 0.163 0.208 0.594 0.303 0.824-1.022 0.429-2.505 0.341-3.327 1.126-0.492 0.47-0.609 1.119-0.619 1.767 0.44-0.543 0.922-0.984 1.644-1.104 0.729-0.122 1.501 0.019 2.099 0.464 0.642 0.478 1 1.171 1.107 1.956 0.123 0.902-0.102 1.753-0.655 2.474-0.401 0.445-0.867 0.774-1.455 0.918-0.744 0.182-1.593 0.088-2.248-0.319-0.748-0.464-1.178-1.231-1.364-2.073-0.279-1.26-0.224-3.142 0.502-4.26 0.64-0.986 1.607-1.182 2.681-1.437 0.446-0.106 0.886-0.237 1.333-0.335zM39.884 19.225c0.633-0.094 1.104-0.245 1.498-0.789 0.386-0.533 0.511-1.206 0.391-1.847-0.097-0.517-0.369-0.99-0.813-1.283-0.272-0.18-0.587-0.283-0.913-0.298-0.616 0.069-1.123 0.197-1.533 0.705-0.385 0.477-0.549 1.121-0.464 1.726 0.078 0.551 0.379 1.082 0.832 1.411 0.306 0.222 0.635 0.32 1.003 0.377z"></path>
<path d="M27.73 11.954c0.36-0.036 0.734-0.019 1.096-0.021-0.049 2.65 0.009 5.308-0.006 7.96l-0.954-0.010 0.001-4.688c-0.003-0.537-0.014-1.075 0.019-1.612-0.88 1.624-1.673 3.32-2.636 4.895l-0.62-0.003c-0.949-1.556-1.739-3.232-2.616-4.83 0.034 0.733 0.011 1.478 0.012 2.212l0.002 4.037c-0.318-0.008-0.635 0.012-0.954-0.002l0-4.829c0.001-1.038-0.020-2.083 0.037-3.119l1.062 0.001c0.302 0.518 0.558 1.072 0.833 1.605 0.636 1.237 1.266 2.487 1.952 3.696 1.009-1.71 1.807-3.552 2.771-5.29z"></path>
<path d="M32.639 14.007c0.146-0.008 0.291-0.013 0.437-0.017 0.764-0.013 1.525 0.196 2.076 0.75 0.737 0.741 0.81 1.674 0.81 2.66-1.59 0.020-3.183-0.001-4.774 0.006 0.049 0.262 0.098 0.514 0.223 0.753 0.249 0.479 0.68 0.838 1.197 0.995 0.618 0.187 1.24 0.078 1.797-0.229 0.187-0.127 0.357-0.275 0.531-0.419 0.25 0.143 0.502 0.262 0.766 0.376-0.392 0.529-0.898 0.915-1.539 1.091-0.82 0.224-1.819 0.136-2.558-0.298-0.648-0.382-1.112-1.010-1.287-1.741-0.218-0.879-0.096-1.84 0.381-2.614 0.46-0.745 1.105-1.113 1.939-1.313zM31.199 16.657c0.788-0.006 1.576-0.009 2.364-0.007l1.473 0.001c-0.144-0.604-0.287-1.165-0.85-1.518-0.411-0.259-0.91-0.298-1.384-0.259-0.511 0.118-0.943 0.351-1.234 0.802-0.198 0.305-0.285 0.633-0.368 0.981z"></path>
<path d="M52.424 14.005c0.143-0.007 0.286-0.012 0.429-0.014 0.762-0.008 1.524 0.218 2.068 0.774 0.716 0.732 0.782 1.666 0.778 2.632-1.584 0.024-3.171 0.005-4.756 0.009 0.021 0.289 0.072 0.538 0.207 0.798 0.25 0.481 0.664 0.8 1.181 0.951 0.692 0.203 1.321 0.053 1.932-0.286 0.149-0.103 0.282-0.229 0.417-0.349 0.251 0.135 0.506 0.245 0.77 0.35-0.414 0.544-0.93 0.939-1.599 1.109-0.832 0.211-1.787 0.13-2.53-0.318-0.659-0.398-1.111-1.054-1.285-1.801-0.198-0.853-0.060-1.835 0.417-2.574s1.129-1.098 1.97-1.279zM50.934 16.655c0.754-0.002 1.509-0.012 2.263-0.005l1.598-0.001c-0.166-0.621-0.34-1.227-0.941-1.569-0.372-0.212-0.826-0.248-1.246-0.206-0.499 0.082-0.92 0.27-1.23 0.687-0.245 0.33-0.35 0.699-0.444 1.092z"></path>
<path d="M68.874 14.089c0.965-0.045 1.944-0.012 2.91-0.009-0.049 1.932-0.005 3.876-0.006 5.81l-0.994-0.011-0.001-1.985c-0.475-0.003-1.1-0.096-1.553 0.012-0.141 0.034-0.167 0.105-0.246 0.215-0.335 0.595-0.709 1.169-1.045 1.765-0.376 0.008-0.752 0.010-1.127 0.003 0.368-0.69 0.867-1.569 1.354-2.167-0.058-0.028-0.115-0.058-0.172-0.089-0.425-0.234-0.749-0.611-0.874-1.084-0.129-0.493-0.059-1.055 0.205-1.493 0.355-0.59 0.912-0.817 1.549-0.967zM69.893 17.061c0.294-0.003 0.593 0.007 0.886-0.015-0.004-0.687-0.002-1.374 0.005-2.061-0.583-0.002-1.174-0.018-1.756 0.014-0.367 0.115-0.654 0.239-0.852 0.593-0.131 0.235-0.167 0.546-0.078 0.801 0.086 0.248 0.284 0.421 0.518 0.527 0.395 0.178 0.854 0.143 1.277 0.14z"></path>
<path d="M44.808 14.142c1.259-0.045 2.528-0.016 3.788-0.018l-0.006 5.765c-0.314-0.005-0.629-0.018-0.94 0.025l-0.005-4.883-0.534 0.022c-0.477-0.024-0.964 0.008-1.442 0.019-0.013 1.162-0.018 3.571-0.832 4.431-0.406 0.429-0.865 0.473-1.419 0.477-0.004-0.303-0.020-0.602-0.042-0.905 0.145-0.013 0.298-0.023 0.439-0.059 0.876-0.221 0.891-3.116 0.913-3.846 0.009-0.284-0.054-0.796 0.078-1.027z"></path>
<path d="M65.225 14.099l0.129-0.008c0.015 0.021 0.037 0.038 0.047 0.063 0.043 0.113-0.001 5.149-0.001 5.731l-0.844 0.006-0.062-0.012c-0.135-0.244 0-5.043-0.042-5.768 0.258 0.003 0.516-0.005 0.773-0.011z"></path>
<path d="M64.433 11.925l0.971-0.003c-0.010 0.345-0.002 0.689 0.002 1.034l-1 0.008c0.015-0.346 0.023-0.692 0.026-1.039z"></path>
</symbol>
</defs>
</svg>