<svg xmlns="http://www.w3.org/2000/svg" style="display:none">
  <symbol id="icon-facebook" viewBox="0 0 32 32">
    <path fill="currentColor" d="M29.333 16.405c0-7.409-5.969-13.415-13.333-13.415s-13.333 6.006-13.333 13.415c0 6.696 4.876 12.245 11.25 13.252v-9.374h-3.385v-3.878h3.385v-2.955c0-3.362 1.991-5.219 5.036-5.219 1.459 0 2.985 0.262 2.985 0.262v3.301h-1.681c-1.656 0-2.173 1.034-2.173 2.095v2.516h3.698l-0.591 3.878h-3.107v9.374c6.374-1.006 11.25-6.556 11.25-13.252z"/>
  </symbol>
  <symbol id="icon-favicon" viewBox="0 0 32 32">
    <path fill="currentColor" stroke="currentColor" stroke-width="0.6667" d="M14.937 4.453c6.577-0.614 12.405 4.224 13.012 10.802s-4.237 12.4-10.815 13c-6.569 0.6-12.381-4.236-12.987-10.804s4.223-12.386 10.791-12.998zM17.322 26.99c5.872-0.705 10.059-6.038 9.35-11.909s-6.044-10.055-11.915-9.343c-5.865 0.712-10.045 6.041-9.337 11.907s6.035 10.049 11.902 9.345z"/>
    <path fill="currentColor" stroke="currentColor" stroke-width="0.6667" d="M20.726 10.134l1.376-0.009c0.027 3.971 0.029 7.942 0.006 11.912l-1.423 0.018-0.002-7.461-0.007-2.043c-0.795 1.508-1.697 2.958-2.556 4.429-0.545 0.933-1.051 2.003-1.725 2.841-0.161 0.059-0.335 0.063-0.503 0.025-0.055-0.013-0.169-0.056-0.211-0.089-0.364-0.29-3.783-6.297-4.329-7.208 0.14 1.080 0.052 2.259 0.052 3.349l-0.004 6.127-1.455 0.005c0.045-3.964-0.026-7.931 0.012-11.896l1.584 0.008c0.704 1.259 1.46 2.492 2.19 3.737 0.776 1.323 1.532 2.661 2.357 3.954 0.839-1.532 1.777-3.017 2.679-4.514 0.639-1.060 1.243-2.176 1.959-3.186z"/>
  </symbol>
  <symbol id="icon-instagram" viewBox="0 0 32 32">
    <path fill="currentColor" d="M15.998 6.161c3.206 0 3.585 0.014 4.846 0.071 1.172 0.052 1.804 0.248 2.226 0.412 0.558 0.216 0.961 0.478 1.378 0.895 0.422 0.422 0.679 0.82 0.9 1.378 0.164 0.422 0.361 1.059 0.412 2.226 0.056 1.266 0.071 1.645 0.071 4.847s-0.014 3.585-0.071 4.847c-0.052 1.172-0.248 1.804-0.412 2.227-0.216 0.558-0.478 0.961-0.895 1.377-0.422 0.422-0.82 0.679-1.378 0.9-0.422 0.164-1.060 0.361-2.226 0.412-1.266 0.056-1.645 0.071-4.847 0.071s-3.585-0.014-4.847-0.071c-1.172-0.052-1.804-0.248-2.226-0.412-0.558-0.216-0.961-0.478-1.378-0.895-0.422-0.422-0.679-0.82-0.9-1.378-0.164-0.422-0.361-1.060-0.412-2.226-0.056-1.266-0.071-1.645-0.071-4.847s0.014-3.585 0.071-4.847c0.052-1.172 0.248-1.804 0.412-2.226 0.216-0.558 0.478-0.961 0.895-1.378 0.422-0.422 0.82-0.679 1.378-0.9 0.422-0.164 1.059-0.361 2.226-0.412 1.261-0.056 1.641-0.071 4.847-0.071h0.001z"/>
    <path fill="currentColor" d="M15.998 9.836c-3.402 0-6.163 2.76-6.163 6.163s2.76 6.163 6.163 6.163c3.403 0 6.163-2.76 6.163-6.163s-2.76-6.163-6.163-6.163zM15.998 19.997c-2.208 0-3.998-1.79-3.998-3.998s1.79-3.998 3.998-3.998c2.208 0 3.998 1.79 3.998 3.998s-1.79 3.998-3.998 3.998z"/>
    <path fill="currentColor" d="M23.843 9.592c0 0.795-0.644 1.439-1.439 1.439s-1.439-0.644-1.439-1.439 0.644-1.439 1.439-1.439c0.795 0 1.439 0.644 1.439 1.439z"/>
  </symbol>
  <symbol id="icon-arrow-back" viewBox="0 0 32 32">
    <path fill="currentColor" d="M28 14.667h-19.448l7.057-7.057-1.885-1.885-10.276 10.276 10.276 10.276 1.885-1.885-7.057-7.057h19.448v-2.667z"/>
  </symbol>
  <symbol id="icon-chevron-down" viewBox="0 0 32 32">
    <path fill="currentColor" d="M21.724 11.057l-5.724 5.724-5.724-5.724-1.885 1.885 7.609 7.609 7.609-7.609-1.885-1.885z"/>
  </symbol>
  <symbol id="icon-chevron-left" viewBox="0 0 32 32">
    <path fill="currentColor" d="M17.724 8.391l-7.609 7.609 7.609 7.609 1.885-1.885-5.724-5.724 5.724-5.724-1.885-1.885z"/>
  </symbol>
  <symbol id="icon-chevron-right" viewBox="0 0 32 32">
    <path fill="currentColor" d="M12.943 22.599l7.609-7.609-7.609-7.609-1.885 1.885 5.724 5.724-5.724 5.724 1.885 1.885z"/>
  </symbol>
  <symbol id="icon-down-arrow-alt" viewBox="0 0 32 32">
    <path fill="currentColor" d="M24.943 16.943l-1.885-1.885-5.724 5.724v-12.781h-2.667v12.781l-5.724-5.724-1.885 1.885 8.943 8.943 8.943-8.943z"/>
  </symbol>
  <symbol id="icon-left-arrow-alt" viewBox="0 0 32 32">
    <path fill="currentColor" d="M16.943 23.057l-5.724-5.724h12.781v-2.667h-12.781l5.724-5.724-1.885-1.885-8.943 8.943 8.943 8.943 1.885-1.885z"/>
  </symbol>
  <symbol id="icon-menu" viewBox="0 0 32 32">
    <path fill="currentColor" d="M5.333 8h21.333v2.667h-21.333v-2.667zM5.333 14.667h21.333v2.667h-21.333v-2.667zM5.333 21.333h21.333v2.667h-21.333v-2.667z"/>
  </symbol>
  <symbol id="icon-minus" viewBox="0 0 32 32">
    <path fill="currentColor" d="M6.667 14.667h18.667v2.667h-18.667v-2.667z"/>
  </symbol>
  <symbol id="icon-plus" viewBox="0 0 32 32">
    <path fill="currentColor" d="M25.333 14.667h-8v-8h-2.667v8h-8v2.667h8v8h2.667v-8h8v-2.667z"/>
  </symbol>
  <symbol id="icon-right-arrow-alt" viewBox="0 0 32 32">
    <path fill="currentColor" d="M15.057 23.057l1.885 1.885 8.943-8.943-8.943-8.943-1.885 1.885 5.724 5.724h-12.781v2.667h12.781l-5.724 5.724z"/>
  </symbol>
  <symbol id="icon-star" viewBox="0 0 32 32">
    <path fill="currentColor" d="M8.688 19.097l-1.987 8.603c-0.062 0.261-0.043 0.533 0.053 0.783s0.265 0.465 0.485 0.617c0.22 0.152 0.481 0.235 0.749 0.236s0.53-0.078 0.752-0.227l7.26-4.84 7.26 4.84c0.227 0.151 0.495 0.228 0.768 0.222s0.537-0.095 0.757-0.256c0.22-0.161 0.386-0.385 0.475-0.642s0.097-0.536 0.023-0.799l-2.439-8.533 6.048-5.443c0.194-0.174 0.332-0.402 0.398-0.654s0.056-0.518-0.027-0.765-0.238-0.464-0.444-0.624c-0.206-0.16-0.454-0.256-0.714-0.277l-7.601-0.605-3.289-7.281c-0.105-0.234-0.275-0.434-0.491-0.573s-0.467-0.214-0.724-0.214c-0.257 0-0.508 0.074-0.724 0.214s-0.386 0.339-0.491 0.573l-3.289 7.281-7.601 0.604c-0.255 0.020-0.5 0.114-0.703 0.269s-0.358 0.366-0.445 0.607c-0.087 0.241-0.103 0.502-0.046 0.752s0.185 0.478 0.369 0.656l5.619 5.476zM12.492 13.329c0.238-0.019 0.467-0.101 0.662-0.239s0.35-0.325 0.448-0.543l2.399-5.308 2.399 5.308c0.098 0.218 0.252 0.405 0.448 0.543s0.424 0.22 0.662 0.239l5.296 0.42-4.361 3.925c-0.379 0.341-0.529 0.867-0.391 1.357l1.671 5.847-4.981-3.321c-0.219-0.147-0.476-0.225-0.739-0.225s-0.521 0.078-0.739 0.225l-5.205 3.471 1.4-6.061c0.051-0.223 0.044-0.455-0.020-0.675s-0.184-0.419-0.348-0.579l-4.051-3.949 5.453-0.435z"/>
  </symbol>
  <symbol id="icon-up-arrow-alt" viewBox="0 0 32 32">
    <path fill="currentColor" d="M14.667 11.219v12.781h2.667v-12.781l5.724 5.724 1.885-1.885-8.943-8.943-8.943 8.943 1.885 1.885 5.724-5.724z"/>
  </symbol>
  <symbol id="icon-x" viewBox="0 0 32 32">
    <path fill="currentColor" d="M21.589 8.459l-5.657 5.656-5.656-5.656-1.885 1.885 5.656 5.656-5.656 5.656 1.885 1.885 5.656-5.656 5.657 5.656 1.885-1.885-5.656-5.656 5.656-5.656-1.885-1.885z"/>
  </symbol>
  <symbol id="icon-youtube" viewBox="0 0 32 32">
    <path fill="currentColor" d="M28.791 9.604c-0.152-0.563-0.449-1.077-0.861-1.49s-0.925-0.711-1.489-0.864c-2.088-0.573-10.441-0.583-10.441-0.583s-8.352-0.009-10.441 0.539c-0.563 0.16-1.075 0.462-1.487 0.878s-0.711 0.929-0.867 1.493c-0.551 2.088-0.556 6.419-0.556 6.419s-0.005 4.352 0.541 6.419c0.307 1.143 1.207 2.045 2.351 2.353 2.109 0.573 10.44 0.583 10.44 0.583s8.353 0.009 10.441-0.537c0.563-0.153 1.077-0.45 1.49-0.862s0.712-0.925 0.866-1.488c0.552-2.087 0.556-6.416 0.556-6.416s0.027-4.353-0.543-6.441zM13.328 20.007l0.007-8 6.943 4.007-6.949 3.993z"/>
  </symbol>
  <symbol id="menu" viewBox="0 0 32 32">
  <path d="M5.333 8h21.333v2.667h-21.333v-2.667zM5.333 14.667h21.333v2.667h-21.333v-2.667zM5.333 21.333h21.333v2.667h-21.333v-2.667z"></path>
  </symbol>
  <symbol id="icon-x-mobile" viewBox="0 0 32 32">
  <path d="M21.589 8.459l-5.657 5.656-5.656-5.656-1.885 1.885 5.656 5.656-5.656 5.656 1.885 1.885 5.656-5.656 5.657 5.656 1.885-1.885-5.656-5.656 5.656-5.656-1.885-1.885z"></path>
  </symbol>
  <symbol id="icon-logo-w" viewBox="0 0 74 32">
  <path d="M8.763 8.485c4.266-0.398 8.046 2.74 8.44 7.007s-2.748 8.043-7.015 8.433c-4.261 0.389-8.031-2.748-8.424-7.008s2.74-8.034 7-8.431zM10.31 23.104c3.809-0.457 6.525-3.917 6.065-7.725s-3.921-6.522-7.729-6.060c-3.805 0.462-6.516 3.919-6.056 7.724s3.915 6.518 7.72 6.062z"></path>
  <path d="M12.517 12.169l0.892-0.006c0.017 2.576 0.019 5.151 0.004 7.727l-0.923 0.012-0.001-4.839-0.004-1.325c-0.515 0.978-1.101 1.919-1.658 2.873-0.353 0.605-0.681 1.299-1.119 1.843-0.104 0.038-0.217 0.041-0.326 0.016-0.036-0.008-0.11-0.036-0.137-0.058-0.236-0.188-2.454-4.085-2.808-4.675 0.091 0.701 0.034 1.465 0.033 2.172l-0.003 3.974-0.944 0.003c0.029-2.571-0.017-5.145 0.008-7.717l1.027 0.005c0.457 0.817 0.947 1.617 1.421 2.424 0.504 0.858 0.994 1.726 1.529 2.565 0.544-0.994 1.153-1.957 1.738-2.928 0.414-0.688 0.806-1.412 1.27-2.066z"></path>
  <path d="M59.764 14.005c0.182-0.012 0.369-0.017 0.551-0.014 0.68 0.012 1.375 0.376 1.841 0.858 0.581 0.601 0.85 1.439 0.831 2.266-0.020 0.841-0.335 1.641-0.954 2.218-0.549 0.511-1.252 0.785-2.004 0.757-0.861-0.032-1.432-0.395-2.010-1.012-0.022 0.353-0.016 0.71-0.019 1.063 0.004 0.702 0.003 1.405-0.003 2.107-0.328 0.032-0.658 0.029-0.985-0.009 0.054-1.087 0.006-2.201 0.007-3.292 0-1.622 0.026-3.248-0.011-4.87l0.974-0.004c-0.019 0.362-0.015 0.727-0.020 1.090 0.528-0.659 0.968-0.976 1.801-1.16zM60.186 19.219c0.606-0.114 1.075-0.361 1.43-0.883 0.348-0.52 0.473-1.159 0.346-1.771-0.109-0.546-0.432-1.062-0.908-1.361-0.374-0.235-0.779-0.3-1.212-0.287-0.6 0.114-1.087 0.327-1.447 0.851-0.339 0.493-0.485 1.195-0.371 1.781 0.109 0.563 0.442 1.057 0.925 1.367 0.384 0.242 0.79 0.311 1.236 0.303z"></path>
  <path d="M41.584 11.561c0.159 0.163 0.208 0.594 0.303 0.824-1.022 0.429-2.505 0.341-3.327 1.126-0.492 0.47-0.609 1.119-0.619 1.767 0.44-0.543 0.922-0.984 1.644-1.104 0.729-0.122 1.501 0.019 2.099 0.464 0.642 0.478 1 1.171 1.107 1.956 0.123 0.902-0.102 1.753-0.655 2.474-0.401 0.445-0.867 0.774-1.455 0.918-0.744 0.182-1.593 0.088-2.248-0.319-0.748-0.464-1.178-1.231-1.364-2.073-0.279-1.26-0.224-3.142 0.502-4.26 0.64-0.986 1.607-1.182 2.681-1.437 0.446-0.106 0.886-0.237 1.333-0.335zM39.884 19.225c0.633-0.094 1.104-0.245 1.498-0.789 0.386-0.533 0.511-1.206 0.391-1.847-0.097-0.517-0.369-0.99-0.813-1.283-0.272-0.18-0.587-0.283-0.913-0.298-0.616 0.069-1.123 0.197-1.533 0.705-0.385 0.477-0.549 1.121-0.464 1.726 0.078 0.551 0.379 1.082 0.832 1.411 0.306 0.222 0.635 0.32 1.003 0.377z"></path>
  <path d="M27.73 11.954c0.36-0.036 0.734-0.019 1.096-0.021-0.049 2.65 0.009 5.308-0.006 7.96l-0.954-0.010 0.001-4.688c-0.003-0.537-0.014-1.075 0.019-1.612-0.88 1.624-1.673 3.32-2.636 4.895l-0.62-0.003c-0.949-1.556-1.739-3.232-2.616-4.83 0.034 0.733 0.011 1.478 0.012 2.212l0.002 4.037c-0.318-0.008-0.635 0.012-0.954-0.002l0-4.829c0.001-1.038-0.020-2.083 0.037-3.119l1.062 0.001c0.302 0.518 0.558 1.072 0.833 1.605 0.636 1.237 1.266 2.487 1.952 3.696 1.009-1.71 1.807-3.552 2.771-5.29z"></path>
  <path d="M32.639 14.007c0.146-0.008 0.291-0.013 0.437-0.017 0.764-0.013 1.525 0.196 2.076 0.75 0.737 0.741 0.81 1.674 0.81 2.66-1.59 0.020-3.183-0.001-4.774 0.006 0.049 0.262 0.098 0.514 0.223 0.753 0.249 0.479 0.68 0.838 1.197 0.995 0.618 0.187 1.24 0.078 1.797-0.229 0.187-0.127 0.357-0.275 0.531-0.419 0.25 0.143 0.502 0.262 0.766 0.376-0.392 0.529-0.898 0.915-1.539 1.091-0.82 0.224-1.819 0.136-2.558-0.298-0.648-0.382-1.112-1.010-1.287-1.741-0.218-0.879-0.096-1.84 0.381-2.614 0.46-0.745 1.105-1.113 1.939-1.313zM31.199 16.657c0.788-0.006 1.576-0.009 2.364-0.007l1.473 0.001c-0.144-0.604-0.287-1.165-0.85-1.518-0.411-0.259-0.91-0.298-1.384-0.259-0.511 0.118-0.943 0.351-1.234 0.802-0.198 0.305-0.285 0.633-0.368 0.981z"></path>
  <path d="M52.424 14.005c0.143-0.007 0.286-0.012 0.429-0.014 0.762-0.008 1.524 0.218 2.068 0.774 0.716 0.732 0.782 1.666 0.778 2.632-1.584 0.024-3.171 0.005-4.756 0.009 0.021 0.289 0.072 0.538 0.207 0.798 0.25 0.481 0.664 0.8 1.181 0.951 0.692 0.203 1.321 0.053 1.932-0.286 0.149-0.103 0.282-0.229 0.417-0.349 0.251 0.135 0.506 0.245 0.77 0.35-0.414 0.544-0.93 0.939-1.599 1.109-0.832 0.211-1.787 0.13-2.53-0.318-0.659-0.398-1.111-1.054-1.285-1.801-0.198-0.853-0.060-1.835 0.417-2.574s1.129-1.098 1.97-1.279zM50.934 16.655c0.754-0.002 1.509-0.012 2.263-0.005l1.598-0.001c-0.166-0.621-0.34-1.227-0.941-1.569-0.372-0.212-0.826-0.248-1.246-0.206-0.499 0.082-0.92 0.27-1.23 0.687-0.245 0.33-0.35 0.699-0.444 1.092z"></path>
  <path d="M68.874 14.089c0.965-0.045 1.944-0.012 2.91-0.009-0.049 1.932-0.005 3.876-0.006 5.81l-0.994-0.011-0.001-1.985c-0.475-0.003-1.1-0.096-1.553 0.012-0.141 0.034-0.167 0.105-0.246 0.215-0.335 0.595-0.709 1.169-1.045 1.765-0.376 0.008-0.752 0.010-1.127 0.003 0.368-0.69 0.867-1.569 1.354-2.167-0.058-0.028-0.115-0.058-0.172-0.089-0.425-0.234-0.749-0.611-0.874-1.084-0.129-0.493-0.059-1.055 0.205-1.493 0.355-0.59 0.912-0.817 1.549-0.967zM69.893 17.061c0.294-0.003 0.593 0.007 0.886-0.015-0.004-0.687-0.002-1.374 0.005-2.061-0.583-0.002-1.174-0.018-1.756 0.014-0.367 0.115-0.654 0.239-0.852 0.593-0.131 0.235-0.167 0.546-0.078 0.801 0.086 0.248 0.284 0.421 0.518 0.527 0.395 0.178 0.854 0.143 1.277 0.14z"></path>
  <path d="M44.808 14.142c1.259-0.045 2.528-0.016 3.788-0.018l-0.006 5.765c-0.314-0.005-0.629-0.018-0.94 0.025l-0.005-4.883-0.534 0.022c-0.477-0.024-0.964 0.008-1.442 0.019-0.013 1.162-0.018 3.571-0.832 4.431-0.406 0.429-0.865 0.473-1.419 0.477-0.004-0.303-0.020-0.602-0.042-0.905 0.145-0.013 0.298-0.023 0.439-0.059 0.876-0.221 0.891-3.116 0.913-3.846 0.009-0.284-0.054-0.796 0.078-1.027z"></path>
  <path d="M65.225 14.099l0.129-0.008c0.015 0.021 0.037 0.038 0.047 0.063 0.043 0.113-0.001 5.149-0.001 5.731l-0.844 0.006-0.062-0.012c-0.135-0.244 0-5.043-0.042-5.768 0.258 0.003 0.516-0.005 0.773-0.011z"></path>
  <path d="M64.433 11.925l0.971-0.003c-0.010 0.345-0.002 0.689 0.002 1.034l-1 0.008c0.015-0.346 0.023-0.692 0.026-1.039z"></path>
  </symbol>
  <symbol id="icon-arrow-left" viewBox="0 0 24 24">
    <path d="M15 18l-6-6 6-6" stroke="currentColor" fill="none" stroke-width="2"/>
  </symbol>

  <symbol id="icon-arrow-right" viewBox="0 0 24 24">
    <path d="M9 6l6 6-6 6" stroke="currentColor" fill="none" stroke-width="2"/>
  </symbol>

  <symbol id="icon-star" viewBox="0 0 24 24">
    <path d="M12 2l3 7h7l-5.5 4.5L18 21l-6-4-6 4 1.5-7.5L2 9h7z" fill="currentColor"/>
  </symbol>
</svg>
