<svg aria-hidden="true" style="position: absolute; width: 0; height: 0; overflow: hidden;" version="1.1" xmlns="http://www.w3.org/2000/svg" xmlns:xlink="http://www.w3.org/1999/xlink">
<defs>
<symbol id="icon-minus" viewBox="0 0 32 32">
<path d="M0 13.714h32v4.571h-32v-4.571z"></path>
</symbol>
<symbol id="icon-plus" viewBox="0 0 32 32">
<path d="M32 13.714h-13.714v-13.714h-4.571v13.714h-13.714v4.571h13.714v13.714h4.571v-13.714h13.714v-4.571z"></path>
</symbol>
<symbol id="icon-x" viewBox="0 0 32 32">
<path d="M27.179 0.918l-11.315 11.312-11.312-11.312-3.771 3.771 11.312 11.312-11.312 11.312 3.771 3.771 11.312-11.312 11.315 11.312 3.771-3.771-11.312-11.312 11.312-11.312-3.771-3.771z"></path>
</symbol>
<symbol id="icon-star" viewBox="0 0 32 32">
<path d="M7.226 19.717l-2.384 10.323c-0.074 0.313-0.052 0.64 0.064 0.94s0.318 0.558 0.582 0.74c0.264 0.183 0.577 0.281 0.899 0.283s0.635-0.093 0.902-0.273l8.712-5.808 8.712 5.808c0.273 0.181 0.594 0.274 0.921 0.267s0.644-0.114 0.908-0.307c0.264-0.193 0.463-0.462 0.57-0.771s0.116-0.644 0.028-0.959l-2.926-10.24 7.258-6.531c0.232-0.209 0.399-0.482 0.477-0.785s0.068-0.622-0.033-0.918-0.285-0.556-0.532-0.749c-0.247-0.192-0.544-0.308-0.856-0.333l-9.122-0.726-3.947-8.738c-0.126-0.281-0.33-0.52-0.589-0.688s-0.56-0.257-0.868-0.257c-0.308 0-0.61 0.089-0.868 0.257s-0.463 0.407-0.589 0.688l-3.947 8.738-9.122 0.725c-0.306 0.024-0.599 0.136-0.844 0.323s-0.43 0.439-0.534 0.728c-0.104 0.289-0.123 0.602-0.055 0.902s0.223 0.573 0.443 0.788l6.742 6.571zM11.79 12.795c0.286-0.023 0.56-0.121 0.794-0.286s0.42-0.39 0.537-0.651l2.878-6.37 2.878 6.37c0.117 0.261 0.303 0.486 0.537 0.651s0.508 0.264 0.794 0.286l6.355 0.504-5.234 4.71c-0.454 0.41-0.635 1.040-0.469 1.629l2.005 7.016-5.978-3.986c-0.262-0.176-0.571-0.27-0.887-0.27s-0.625 0.094-0.887 0.27l-6.246 4.165 1.68-7.274c0.062-0.268 0.053-0.546-0.024-0.81s-0.221-0.503-0.418-0.694l-4.861-4.739 6.544-0.522z"></path>
</symbol>
<symbol id="icon-left-arrow-alt" viewBox="0 0 32 32">
<path d="M32 14.316h-24.566l8.915-8.915-2.381-2.381-12.98 12.98 12.98 12.98 2.381-2.381-8.915-8.915h24.566v-3.368z"></path>
</symbol>
<symbol id="icon-icon-5" viewBox="0 0 32 32">
<path d="M0.781 22.114l3.771 3.771 11.448-11.448 11.448 11.448 3.771-3.771-15.219-15.219-15.219 15.219z"></path>
</symbol>
<symbol id="icon-chevron-down" viewBox="0 0 32 32">
<path d="M27.448 6.115l-11.448 11.448-11.448-11.448-3.771 3.771 15.219 15.219 15.219-15.219-3.771-3.771z"></path>
</symbol>
<symbol id="icon-chevron-left" viewBox="0 0 32 32">
<path d="M22.114 0.781l-15.219 15.219 15.219 15.219 3.771-3.771-11.448-11.448 11.448-11.448-3.771-3.771z"></path>
</symbol>
<symbol id="icon-chevron-right" viewBox="0 0 32 32">
<path d="M9.885 31.866l15.219-15.219-15.219-15.219-3.771 3.771 11.448 11.448-11.448 11.448 3.771 3.771z"></path>
</symbol>
<symbol id="icon-up-arrow-alt" viewBox="0 0 32 32">
<path d="M13.714 10.089v21.911h4.571v-21.911l9.813 9.813 3.232-3.232-15.33-15.33-15.33 15.33 3.232 3.232 9.813-9.813z"></path>
</symbol>
<symbol id="icon-down-arrow-alt" viewBox="0 0 32 32">
<path d="M31.33 15.33l-3.232-3.232-9.813 9.813v-21.911h-4.571v21.911l-9.813-9.813-3.232 3.232 15.33 15.33 15.33-15.33z"></path>
</symbol>
<symbol id="icon-arrow-back" viewBox="0 0 32 32">
<path d="M19.902 28.098l-9.813-9.813h21.911v-4.571h-21.911l9.813-9.813-3.232-3.232-15.33 15.33 15.33 15.33 3.232-3.232z"></path>
</symbol>
<symbol id="icon-right-arrow-alt" viewBox="0 0 32 32">
<path d="M12.098 28.098l3.232 3.232 15.33-15.33-15.33-15.33-3.232 3.232 9.813 9.813h-21.911v4.571h21.911l-9.813 9.813z"></path>
</symbol>
<symbol id="icon-menu" viewBox="0 0 32 32">
<path d="M0 4h32v4h-32v-4zM0 14h32v4h-32v-4zM0 24h32v4h-32v-4z"></path>
</symbol>
<symbol id="icon-facebook" viewBox="0 0 30 32">
<path d="M30.476 15.701c0-8.467-6.822-15.331-15.238-15.331s-15.238 6.864-15.238 15.331c0 7.652 5.572 13.995 12.857 15.145v-10.713h-3.869v-4.432h3.869v-3.378c0-3.842 2.275-5.965 5.756-5.965 1.667 0 3.411 0.299 3.411 0.299v3.773h-1.921c-1.893 0-2.483 1.182-2.483 2.394v2.876h4.226l-0.675 4.432h-3.551v10.713c7.285-1.15 12.857-7.493 12.857-15.145z"></path>
</symbol>
<symbol id="icon-youtube" viewBox="0 0 32 32">
<path d="M31.38 7.928c-0.174-0.644-0.513-1.231-0.984-1.703s-1.058-0.813-1.701-0.988c-2.386-0.655-11.933-0.666-11.933-0.666s-9.545-0.011-11.933 0.616c-0.643 0.183-1.228 0.528-1.7 1.003s-0.813 1.062-0.991 1.706c-0.629 2.386-0.635 7.336-0.635 7.336s-0.006 4.974 0.619 7.336c0.35 1.306 1.379 2.338 2.686 2.69 2.411 0.655 11.931 0.666 11.931 0.666s9.547 0.011 11.933-0.614c0.644-0.175 1.231-0.514 1.703-0.986s0.813-1.058 0.989-1.701c0.631-2.385 0.635-7.333 0.635-7.333s0.030-4.975-0.62-7.362zM13.709 19.817l0.008-9.143 7.934 4.579-7.942 4.564z"></path>
</symbol>
<symbol id="icon-instagram" viewBox="0 0 32 32">
<path d="M11.511 4.057c-2.345 0.095-3.639 0.48-4.936 1.471-0.961 0.735-1.652 1.725-2.067 2.964-0.429 1.283-0.508 2.445-0.508 7.508 0 5.696 0.101 6.733 0.803 8.252 0.601 1.303 1.807 2.472 3.109 3.017 1.505 0.629 2.616 0.731 8.061 0.729 4.915 0 6.161-0.081 7.419-0.483 0.94-0.3 1.607-0.668 2.275-1.253 1.32-1.156 2.031-2.729 2.229-4.929 0.085-0.959 0.125-7.46 0.057-9.28-0.083-2.169-0.207-2.919-0.669-4.064-0.727-1.797-2.28-3.113-4.271-3.617-0.761-0.192-1.316-0.256-2.761-0.319-1.36-0.059-7.259-0.056-8.741 0.004zM20.793 6.241c1.849 0.112 2.823 0.468 3.687 1.351 0.552 0.564 0.849 1.123 1.069 2.008 0.201 0.811 0.224 1.315 0.249 5.607 0.033 5.572-0.027 6.671-0.416 7.748-0.369 1.021-1.163 1.885-2.117 2.308-0.412 0.181-1.159 0.371-1.799 0.455-0.765 0.1-10.099 0.1-10.907 0-0.772-0.096-1.489-0.293-2.027-0.557-0.368-0.18-0.544-0.313-0.933-0.705-0.56-0.561-0.776-0.905-1.019-1.617-0.333-0.973-0.352-1.265-0.38-6.015-0.032-5.543 0.021-6.633 0.383-7.695 0.561-1.649 1.86-2.6 3.869-2.832 0.731-0.084 0.896-0.087 5.387-0.099 2.244-0.005 4.473 0.015 4.953 0.044zM21.957 8.237c-0.755 0.269-1.139 1.008-0.919 1.771 0.18 0.623 0.887 1.097 1.508 1.012 0.504-0.069 0.911-0.352 1.148-0.8 0.089-0.169 0.116-0.313 0.117-0.62 0.001-0.345-0.020-0.44-0.159-0.691-0.18-0.308-0.453-0.544-0.78-0.675l-0.011-0.004c-0.132-0.039-0.284-0.062-0.441-0.062-0.166 0-0.325 0.025-0.475 0.071l0.011-0.003zM14.983 9.917c-0.932 0.184-1.759 0.532-2.488 1.015l0.026-0.016c-0.495 0.329-1.275 1.109-1.604 1.604-0.36 0.549-0.658 1.183-0.861 1.857l-0.014 0.052c-0.137 0.497-0.148 0.597-0.148 1.571s0.011 1.073 0.148 1.571c0.302 1.080 0.852 2.007 1.586 2.753l-0.001-0.001c0.758 0.759 1.706 1.327 2.767 1.627l0.045 0.011c0.48 0.131 0.603 0.141 1.561 0.141s1.081-0.011 1.561-0.141c2.144-0.601 3.798-2.255 4.388-4.354l0.011-0.044c0.131-0.48 0.141-0.603 0.141-1.561s-0.011-1.081-0.141-1.561c-0.599-2.144-2.254-3.799-4.355-4.386l-0.044-0.011c-0.444-0.117-0.656-0.14-1.428-0.153-0.499-0.009-1.016 0.004-1.151 0.028zM16.768 12.080c1.487 0.308 2.611 1.348 3.079 2.853 0.18 0.575 0.18 1.559 0 2.133-0.387 1.244-1.229 2.184-2.353 2.627-0.612 0.243-0.8 0.276-1.52 0.275-0.641-0.001-0.732-0.015-1.197-0.173-0.594-0.19-1.102-0.504-1.516-0.912l0 0c-0.4-0.37-0.722-0.82-0.94-1.324l-0.010-0.025c-0.955-2.345 0.413-4.911 2.905-5.453 0.233-0.046 0.502-0.073 0.776-0.073s0.543 0.027 0.802 0.077l-0.026-0.004z"></path>
</symbol>
<symbol id="icon-favicon" viewBox="0 0 32 32">
<path d="M15.173 4.108c-2.204 0.163-4.212 0.882-5.92 2.016l0.045-0.028c-3.053 2.029-4.987 5.16-5.461 8.837-0.089 0.697-0.076 2.236 0.028 3.013 0.324 2.328 1.246 4.395 2.605 6.1l-0.019-0.025c3.547 4.449 9.757 5.875 14.881 3.413 2.208-1.064 3.997-2.698 5.22-4.714l0.031-0.054c0.74-1.228 1.292-2.661 1.572-4.189l0.012-0.078c0.14-0.783 0.195-2.505 0.104-3.308-0.612-5.399-4.512-9.692-9.783-10.769-0.759-0.151-1.632-0.238-2.525-0.238-0.278 0-0.554 0.008-0.828 0.025l0.038-0.002zM16.907 6.052c2.319 0.132 4.64 1.199 6.42 2.949 1.903 1.874 3.083 4.478 3.083 7.358 0 1.63-0.378 3.172-1.051 4.543l0.027-0.061c-1.513 3.119-4.461 5.334-7.962 5.798l-0.053 0.006c-0.951 0.125-2.447 0.077-3.327-0.108-1.557-0.321-2.931-0.94-4.121-1.798l0.031 0.022c-0.587-0.416-1.9-1.737-2.32-2.333-0.864-1.208-1.494-2.645-1.789-4.201l-0.011-0.067c-0.119-0.653-0.16-2.339-0.075-3.063 0.535-4.537 4.087-8.224 8.636-8.965 0.451-0.073 1.54-0.149 1.817-0.125 0.103 0.008 0.415 0.029 0.693 0.045zM9.6 16.079v6.268h2.133l0.005-3.693c0.004-2.031 0.021-3.908 0.040-4.169l0.035-0.477 0.664 1.144c1.859 3.199 2.872 4.815 3.089 4.925 0.36 0.184 0.887 0.164 1.079-0.040 0.189-0.2 0.66-0.937 1.147-1.796 0.257-0.455 0.899-1.559 1.425-2.453 0.162-0.244 0.498-0.818 0.828-1.397l0.188-0.36c0.045-0.097 0.067 0.927 0.087 4.107l0.027 4.237 0.933 0.015c0.513 0.009 0.987 0.003 1.053-0.013l0.12-0.031v-12.531h-1.917l-0.313 0.467c-0.271 0.405-3.548 5.836-3.992 6.617l-0.161 0.284-0.8-1.351c1.151 2.203 0.082 0.413-0.98-1.382l-2.246-4.102-0.289-0.507-2.155-0.029v6.268z"></path>
</symbol>
<symbol id="icon-star-full" viewBox="0 0 32 32">
<path d="M32 12.408l-11.056-1.607-4.944-10.018-4.944 10.018-11.056 1.607 8 7.798-1.889 11.011 9.889-5.199 9.889 5.199-1.889-11.011 8-7.798z"></path>
</symbol>
<symbol id="icon-Vector" viewBox="0 0 32 32">
<path d="M14.584 1.812c0.524-1.317 2.308-1.317 2.832 0l3.091 7.775c0.221 0.555 0.72 0.935 1.293 0.983l8.024 0.673c1.36 0.114 1.911 1.889 0.875 2.817l-6.114 5.478c-0.437 0.391-0.628 1.005-0.494 1.59l1.868 8.191c0.316 1.388-1.127 2.485-2.291 1.741l-6.87-4.39c-0.491-0.314-1.108-0.314-1.599 0l-6.87 4.389c-1.164 0.744-2.607-0.353-2.291-1.741l1.868-8.191c0.133-0.585-0.057-1.199-0.494-1.59l-6.114-5.478c-1.036-0.928-0.485-2.703 0.875-2.817l8.024-0.673c0.573-0.048 1.072-0.428 1.293-0.983l3.092-7.775z"></path>
</symbol>
</defs>
</svg>
